Coordinates
version=1
nRows=27
nColumns=12
inDegrees=yes

Units are S.I. units (second, meters, Newtons, ...)
Angles are in degrees

endheader
time	SC_y	SC_z	SC_x	AC_y	AC_z	AC_x	GH_y	GH_z	GH_yy	EL_x	PS_y
       0.0              -58.18          10.35          8.043          38.69         -6.786          2.082          146.4          56.75         -36.31          10.18          32.31
   0.04236              -58.18          10.35          8.053          38.68         -6.786          2.079          146.3          56.74         -36.32          10.19          32.31
   0.08471              -58.18          10.35          8.063          38.68         -6.786          2.077          146.3          56.73         -36.35          10.21          32.31
    0.1271              -58.18          10.35          8.073          38.68         -6.785          2.074          146.3          56.72         -36.37          10.22           32.3
    0.1694              -58.18          10.35          8.085          38.68         -6.785          2.072          146.3          56.71         -36.39          10.24           32.3
    0.2118              -58.18          10.35          8.097          38.68         -6.784          2.069          146.3           56.7         -36.41          10.26           32.3
    0.2541              -58.18          10.35           8.11          38.68         -6.783          2.066          146.3          56.69         -36.44          10.28          32.29
    0.2965              -58.18          10.34          8.123          38.68         -6.783          2.062          146.3          56.68         -36.47           10.3          32.29
    0.3388              -58.18          10.34          8.138          38.68         -6.782          2.059          146.3          56.66          -36.5          10.32          32.29
    0.3812              -58.18          10.34          8.154          38.67         -6.781          2.055          146.3          56.65         -36.53          10.35          32.28
    0.4236              -58.18          10.34          8.171          38.67         -6.781          2.051          146.3          56.63         -36.57          10.38          32.28
    0.4659              -58.18          10.34          8.189          38.67          -6.78          2.046          146.3          56.62          -36.6           10.4          32.27
    0.5083              -58.18          10.34          8.209          38.67         -6.779          2.042          146.3           56.6         -36.64          10.43          32.27
    0.5506              -58.17          10.34           8.23          38.67         -6.778          2.037          146.3          56.58         -36.69          10.47          32.26
     0.593              -58.17          10.33          8.253          38.66         -6.777          2.031          146.3          56.56         -36.73           10.5          32.26
    0.6353              -58.17          10.33          8.278          38.66         -6.776          2.025          146.3          56.54         -36.78          10.54          32.25
    0.6777              -58.17          10.33          8.306          38.66         -6.774          2.018          146.2          56.51         -36.84          10.58          32.24
      0.72              -58.17          10.33          8.335          38.66         -6.773          2.011          146.2          56.49          -36.9          10.63          32.24
    0.7624              -58.17          10.32          8.368          38.65         -6.772          2.003          146.2          56.46         -36.97          10.68          32.23
    0.8048              -58.17          10.32          8.403          38.65          -6.77          1.995          146.2          56.43         -37.04          10.73          32.22
    0.8471              -58.17          10.32          8.442          38.65         -6.768          1.985          146.2          56.39         -37.12          10.79          32.21
    0.8895              -58.17          10.31          8.485          38.64         -6.766          1.975          146.2          56.35          -37.2          10.86           32.2
    0.9318              -58.16          10.31          8.532          38.64         -6.764          1.964          146.1          56.31          -37.3          10.93          32.19
    0.9742              -58.16          10.31          8.584          38.63         -6.762          1.951          146.1          56.27         -37.41          11.01          32.18
     1.017              -58.16           10.3          8.642          38.63         -6.759          1.937          146.1          56.21         -37.53           11.1          32.16
     1.059              -58.16           10.3          8.707          38.62         -6.756          1.921          146.1          56.16         -37.66           11.2          32.14
     1.101              -58.15          10.29           8.78          38.61         -6.753          1.904          146.0          56.09         -37.81          11.32          32.13
